<svg width="447" height="213" viewBox="0 0 447 213" fill="none" xmlns="http://www.w3.org/2000/svg">
<g filter="url(#filter0_d_76_88)">
<path d="M443 204.071V52.5956H356.041C365.909 49.6145 378.746 46.059 386.717 45.047C390.258 44.6094 394.461 44.4727 398.892 44.3086C413.077 43.8163 429.158 43.2966 437.244 33.0404C438.112 31.9464 438.066 30.2233 437.153 29.184C436.239 28.1447 434.777 28.1994 433.932 29.2934C427.148 37.9087 412.072 38.401 398.778 38.8659C394.255 39.03 389.984 39.1668 386.261 39.6317C381.144 40.2608 374.2 41.9018 367.302 43.7616C375.342 38.2916 382.88 31.4814 385.667 23.8508C389.504 13.3757 386.306 7.33136 384.068 4.67841C380.162 0.0289091 373.241 -1.36594 367.941 1.45111C355.104 8.28861 346.47 22.1551 341.125 44.7188C335.78 22.1551 327.169 8.28861 314.309 1.45111C309.009 -1.36594 302.088 0.0289091 298.182 4.67841C295.944 7.35871 292.746 13.4031 296.583 23.8508C300.306 33.9976 312.481 42.7496 323.011 48.7393C316.364 47.4812 308.004 45.3205 299.758 41.5736C280.434 32.7942 268.419 34.1344 264.467 34.572C263.211 34.7087 262.297 36.0489 262.412 37.5531C262.526 39.0574 263.645 40.1787 264.901 40.0146C268.579 39.6044 279.794 38.3463 298.136 46.688C304.03 49.3683 309.923 51.2555 315.245 52.623H238.565L238.565 198.523H4V205L243.133 204.071L243.133 103.439H438.432L438.432 131.252V204.071L443 204.071ZM369.769 6.42881C371.048 5.74506 372.464 5.44421 373.88 5.44421C376.507 5.44421 379.134 6.53821 380.801 8.53476C383.268 11.4886 383.497 16.0287 381.441 21.6354C376.667 34.6814 353.848 46.0043 344.597 50.1341C351.016 19.6662 361.934 10.586 369.746 6.42881H369.769ZM300.763 21.6354C298.708 16.0013 298.913 11.4886 301.403 8.53476C303.093 6.53821 305.72 5.44421 308.324 5.44421C309.74 5.44421 311.179 5.77241 312.436 6.45616C320.247 10.6134 331.166 19.6662 337.607 50.1888C326.164 45.1017 305.172 33.6968 300.763 21.6628V21.6354ZM243.133 97.942V58.0656H438.432V97.942H243.133Z" fill="#002D6F"/>
</g>
<defs>
<filter id="filter0_d_76_88" x="0" y="0" width="447" height="213" filterUnits="userSpaceOnUse" color-interpolation-filters="sRGB">
<feFlood flood-opacity="0" result="BackgroundImageFix"/>
<feColorMatrix in="SourceAlpha" type="matrix" values="0 0 0 0 0 0 0 0 0 0 0 0 0 0 0 0 0 0 127 0" result="hardAlpha"/>
<feOffset dy="4"/>
<feGaussianBlur stdDeviation="2"/>
<feComposite in2="hardAlpha" operator="out"/>
<feColorMatrix type="matrix" values="0 0 0 0 0 0 0 0 0 0 0 0 0 0 0 0 0 0 0.25 0"/>
<feBlend mode="normal" in2="BackgroundImageFix" result="effect1_dropShadow_76_88"/>
<feBlend mode="normal" in="SourceGraphic" in2="effect1_dropShadow_76_88" result="shape"/>
</filter>
</defs>
</svg>
