<svg width="1363" height="3400" viewBox="0 0 1363 3400" fill="none" xmlns="http://www.w3.org/2000/svg">
<path d="M1091.67 68.55C1091.4 55.76 1088.58 40.44 1078.67 27.55C1051.46 -7.84999 1003.96 -2.83 962.5 25C901.57 65.9 884.68 154 897.67 199.55C904.67 224.12 924.15 271.45 947.67 270.55C968.74 269.75 991.27 230.32 981.67 215.55C967.74 194.11 876.76 210.22 817.67 260.55C745.55 321.98 781.13 385.69 719.67 433.55C655.02 483.89 548.82 466.2 456.42 450.8C386.39 439.13 368.37 424.8 322.67 433.55C253.31 446.83 207.72 496 180.67 527.55C114.5 604.73 91.5297 687.32 82.9197 723.05C53.8997 843.44 0.669724 1228.63 172.92 1330.55C388.59 1458.16 888.5 1100.96 1212.42 1137.05C1224.75 1138.42 1257.74 1143 1287.67 1166.55C1389.57 1246.71 1383.65 1490.53 1275.42 1611.8C1217.21 1677.03 1150.95 1682.65 811.92 1715.3C441.5 1750.97 253.83 1770.22 150.42 1859.3C117.63 1887.55 16.9997 1976.84 4.16972 2115.8C-8.06028 2248.24 66.6397 2348.17 103.17 2397.05C200.76 2527.62 329.4 2569.28 415.92 2597.3C486.68 2620.22 589.4 2653.48 634.17 2606.3C660.87 2578.16 666.57 2521.81 643.17 2500.55C575.92 2439.46 209.91 2615.01 215.67 2788.55C221.23 2956.17 570.98 3042.46 654.42 3063.05C915.69 3127.51 1264.85 3110.3 1309.17 2979.8C1332 2912.57 1269.53 2827.35 1210.17 2788.55C1088.57 2709.07 902.38 2773.66 811.92 2880.8C703.67 3009.02 708.39 3226.76 841.17 3398.3" stroke="#028FFF" stroke-width="4" stroke-miterlimit="10" stroke-dasharray="4 4"/>
</svg>
