<svg width="30" height="30" viewBox="0 0 30 30" fill="none" xmlns="http://www.w3.org/2000/svg">
<path d="M13.75 5.00001H5C4.33696 5.00001 3.70107 5.2634 3.23223 5.73224C2.76339 6.20108 2.5 6.83697 2.5 7.50001V25C2.5 25.663 2.76339 26.2989 3.23223 26.7678C3.70107 27.2366 4.33696 27.5 5 27.5H22.5C23.163 27.5 23.7989 27.2366 24.2678 26.7678C24.7366 26.2989 25 25.663 25 25V16.25M23.125 3.12501C23.6223 2.62773 24.2967 2.34836 25 2.34836C25.7033 2.34836 26.3777 2.62773 26.875 3.12501C27.3723 3.62229 27.6517 4.29675 27.6517 5.00001C27.6517 5.70327 27.3723 6.37773 26.875 6.87501L15 18.75L10 20L11.25 15L23.125 3.12501Z" stroke="white" stroke-width="2" stroke-linecap="round" stroke-linejoin="round"/>
</svg>
