<svg width="95" height="95" viewBox="0 0 95 95" fill="none" xmlns="http://www.w3.org/2000/svg">
<g clip-path="url(#clip0_2004_249)">
<path d="M38.6837 20.4136C40.1764 13.6604 43.3683 11.9386 47.9997 15.208C49.026 14.518 50.0455 13.8882 50.9851 13.1579C51.3916 12.8431 51.7515 12.3406 51.9114 11.8515C54.6902 3.32967 62.1538 -1.23944 70.8501 0.294759C78.7001 1.68157 84.8109 9.53348 84.491 17.8142C84.2511 24.0046 81.0525 28.5603 76.4078 32.1914C74.2087 33.9132 71.6631 35.1862 69.3507 36.774C68.5044 37.3568 67.7048 38.1608 67.165 39.0384C64.9126 42.6964 63.14 46.7161 60.5078 50.0659C55.0634 57.0067 47.6799 59.05 39.2701 56.8392C31.2468 54.7221 28.0814 47.2119 28.7745 39.4337C28.8078 39.0451 28.8944 38.6565 28.9944 37.9866C26.2889 39.1121 23.8499 38.7235 21.5309 37.3903C18.5455 35.6752 17.5592 32.7274 19.0053 29.9404C19.8782 28.2521 21.3776 27.3811 23.1569 27.2941C24.3697 27.2338 24.7962 26.6844 25.256 25.7398C27.4484 21.251 30.747 19.2814 35.4184 19.6766C36.4779 19.7704 37.5108 20.1456 38.6703 20.4203L38.6837 20.4136ZM44.0747 32.3991C43.8015 34.007 43.7415 35.4072 43.2751 36.6601C43.0551 37.2429 42.0622 37.5377 41.4158 37.9598C41.0427 37.3367 40.5429 36.7606 40.3363 36.0839C40.1963 35.6484 40.5495 35.0723 40.5429 34.5631C40.5162 32.3321 40.7361 30.0409 40.3096 27.8836C39.5833 24.2457 36.8644 22.3766 33.4592 22.7651C30.787 23.0733 29.0211 24.7683 28.1348 27.1266C27.2818 29.3977 26.3755 30.9788 23.5567 30.463C23.0302 30.3692 21.964 31.2669 21.7708 31.8967C21.5775 32.5264 21.9574 33.6252 22.4705 34.1276C24.6629 36.2581 27.7483 35.8628 29.4142 33.2902C30.0606 32.2852 30.5404 31.1597 30.9869 30.0476C31.4134 28.9689 31.8532 27.8367 33.2593 28.3258C34.792 28.8618 34.2522 30.0744 33.959 31.2267C33.2193 34.1745 32.2597 37.1089 31.9465 40.1103C31.3401 45.9457 33.6791 51.8614 39.6299 53.61C46.1005 55.506 51.9914 54.4072 56.9226 49.5166C60.1213 46.341 62.0738 42.348 63.9197 38.3216C64.8993 36.1911 66.332 34.7306 68.3978 33.5716C71.0767 32.0642 73.7222 30.3625 76.0213 28.3325C80.2928 24.5472 82.2853 19.7637 81.0058 13.9418C79.6797 7.90548 73.6956 3.09518 67.5248 3.10188C61.4074 3.10188 56.1963 7.43651 54.7969 13.6738C54.557 14.739 54.1438 15.5698 52.9443 15.8981C50.8452 16.4742 49.639 18.0017 49.3925 20.1054C49.1592 22.0684 49.9789 23.7098 51.6315 24.8353C52.5845 25.4852 53.2908 26.2422 52.4778 27.3744C51.6782 28.4866 50.6519 28.0779 49.7657 27.428C47.1001 25.4718 45.8606 22.8522 46.2271 19.5091C46.3804 18.1089 45.8873 17.0504 44.3746 16.9432C42.8752 16.836 42.1022 17.8276 42.1422 19.1943C42.1888 21.0099 42.2022 22.9192 42.7486 24.6209C44.4012 29.8064 48.9393 32.9351 54.4703 33.1562C55.1834 33.183 56.183 33.6386 56.5095 34.208C57.1026 35.2465 56.1096 36.2447 54.5703 36.2514C50.7053 36.2715 47.2867 34.9785 44.1014 32.4058L44.0747 32.3991Z" fill="#028FFF"/>
<path d="M3.24534 43.4669C2.44567 47.3526 3.91839 51.7476 5.99751 56.0755C7.56352 59.3315 8.72969 62.7818 10.3623 65.9976C11.2753 67.7863 12.5747 69.5081 14.0741 70.828C17.1728 73.5547 20.4981 76.0268 23.7834 78.5325C24.8829 79.3699 25.396 80.2811 25.3627 81.7148C25.2694 85.3995 25.3094 89.091 25.3427 92.7758C25.3494 93.9482 25.0828 94.9933 23.77 94.9598C22.5372 94.9263 22.1374 93.9147 22.144 92.7356C22.1574 89.3925 22.1107 86.0494 22.1707 82.713C22.1907 81.6746 21.8508 81.0381 21.0378 80.4217C17.9392 78.0501 14.7538 75.7588 11.8817 73.1326C10.1491 71.5515 8.5631 69.5751 7.55686 67.4648C5.05791 62.2391 2.90548 56.8459 0.673086 51.493C0.333229 50.6756 0.153305 49.7243 0.139977 48.8399C0.0866664 44.6929 0.439851 40.5124 0.0333555 36.4055C-0.446443 31.5617 5.28448 29.8064 8.07664 31.8699C9.5027 32.9284 10.8221 34.5899 11.3952 36.2514C12.2282 38.6566 12.4548 41.2962 12.6747 43.8622C12.728 44.4651 11.7284 45.1619 11.2153 45.8184C10.6755 45.2691 9.80258 44.8001 9.65597 44.1569C9.20283 42.1471 9.24281 40.0099 8.64973 38.0536C8.25656 36.7405 7.35028 35.3202 6.25074 34.5497C4.70472 33.4644 3.252 34.5162 3.24534 36.4189C3.23867 38.4355 3.24534 40.4521 3.24534 43.4669Z" fill="#028FFF"/>
<path d="M94.7534 43.554C95.6197 47.8484 94.0537 52.6788 91.7213 57.4087C90.1487 60.5977 88.8692 63.9274 87.5098 67.2169C86.4969 69.6689 84.9575 71.6922 82.8784 73.3202C79.853 75.6918 76.8609 78.1104 73.8022 80.4418C72.9759 81.0716 72.6827 81.7281 72.696 82.7465C72.756 86.0293 72.7493 89.3121 72.696 92.5949C72.6827 93.238 72.4561 93.9616 72.0896 94.4774C71.8697 94.7923 71.0833 95.0335 70.7502 94.8794C70.2637 94.6516 69.624 94.0487 69.6173 93.5931C69.5307 89.2183 69.524 84.8367 69.6173 80.4619C69.6306 79.9193 70.257 79.2694 70.7502 78.8741C74.0554 76.2077 77.5073 73.7154 80.6926 70.915C82.2386 69.555 83.6381 67.8131 84.5177 65.9573C86.85 61.0331 88.8958 55.975 90.9816 50.9369C91.3615 50.0123 91.5681 48.9538 91.5881 47.9556C91.6614 44.2105 91.628 40.4654 91.6214 36.7204C91.6214 35.769 91.8613 34.7708 90.5085 34.3688C89.2157 33.987 88.0762 34.275 87.4898 35.3135C86.7234 36.6802 86.197 38.2278 85.8238 39.7553C85.4706 41.1957 85.5839 42.7567 85.2107 44.1904C85.0441 44.8269 84.1778 45.2757 83.6247 45.8117C83.1183 45.202 82.1187 44.5187 82.192 43.9961C82.6585 40.8942 82.985 37.6784 84.1045 34.7976C85.5239 31.1463 89.5023 30.0543 92.6943 31.8833C94.0404 32.6604 94.7867 33.7793 94.7667 35.3939C94.7401 37.7521 94.76 40.1171 94.76 43.5473L94.7534 43.554Z" fill="#028FFF"/>
<path d="M81.8788 52.7391C79.0733 50.9369 76.7943 51.091 74.3286 53.1946C72.3628 54.8628 70.5769 56.7454 68.751 58.5744C66.9784 60.3565 65.1592 61.8237 62.7002 62.8286C56.936 65.1802 53.8773 69.7694 53.8173 76.134C53.764 81.4334 53.804 86.7327 53.804 92.0321C53.804 92.4341 53.9572 92.9566 53.764 93.2179C53.2708 93.8745 52.6178 94.4171 52.0314 95C51.5716 94.3769 50.7186 93.7673 50.7053 93.1375C50.5986 87.9521 50.5786 82.7666 50.6719 77.5811C50.7119 75.4171 50.7852 73.1728 51.3716 71.116C53.011 65.3745 56.836 61.549 62.367 59.3851C63.2866 59.0233 64.1863 58.4404 64.9059 57.7638C67.1184 55.6735 69.1708 53.409 71.4232 51.359C75.848 47.3392 80.9059 47.1449 84.671 50.7292C85.9438 51.9351 86.0037 52.6922 84.7909 53.9182C80.506 58.2461 76.1879 62.5473 71.8897 66.8618C71.05 67.6992 70.1304 68.3558 69.0975 67.2772C68.0313 66.165 68.8709 65.2941 69.6706 64.4901C73.1558 60.9863 76.641 57.4824 80.1462 53.9986C80.5927 53.5564 81.1658 53.2482 81.8788 52.7391Z" fill="#028FFF"/>
<path d="M13.1345 52.6788C15.3469 54.8227 17.5726 56.9531 19.7717 59.1171C21.6176 60.926 23.4235 62.7751 25.256 64.6041C26.029 65.3812 26.7487 66.2053 25.7558 67.2504C24.7962 68.2553 23.9033 67.7328 23.0969 66.9221C18.7588 62.5674 14.4339 58.1993 10.0757 53.8579C8.98287 52.7726 9.02285 51.8615 10.1424 50.7962C13.1678 47.9288 17.3127 47.2455 20.8579 49.6171C23.3102 51.2518 25.4293 53.4225 27.5617 55.4926C29.4942 57.3685 31.4734 58.963 33.999 60.1421C40.5696 63.2172 44.1014 68.5836 44.2014 75.9866C44.2747 81.5138 44.2014 87.0476 44.228 92.5748C44.228 93.7606 44.1481 94.9665 42.702 94.9531C41.3492 94.9397 41.0494 93.8142 41.0494 92.5882C41.0694 87.061 41.076 81.5272 41.0494 76C41.0227 69.4278 36.7845 63.9408 30.4672 62.1386C29.7941 61.9443 29.1344 61.4821 28.6213 60.9796C26.3955 58.8223 24.3431 56.4641 21.9907 54.4542C20.518 53.1947 18.6988 52.2031 16.8729 51.56C15.8666 51.2049 14.5272 51.828 13.3344 52.0089C13.2677 52.2299 13.1944 52.451 13.1278 52.6788H13.1345Z" fill="#028FFF"/>
</g>
<defs>
<clipPath id="clip0_2004_249">
<rect width="95" height="95" fill="white"/>
</clipPath>
</defs>
</svg>
