<svg width="98" height="98" viewBox="0 0 98 98" fill="none" xmlns="http://www.w3.org/2000/svg">
<g clip-path="url(#clip0_2004_235)">
<path d="M28.1707 39.3576C26.8607 38.7435 25.8248 37.7288 24.4881 39.1106C24.2074 39.3977 23.0512 39.2909 22.6635 38.9504C20.986 37.4685 19.3351 35.9198 17.9249 34.1909C17.4437 33.6035 17.7177 32.4086 17.6442 31.4874C17.818 31.4274 17.9918 31.374 18.1655 31.3139C13.1061 26.2941 8.05341 21.2809 2.994 16.2611C2.21872 15.4934 1.46349 14.7057 0.681518 13.9448C-0.240804 13.0436 -0.21407 12.1091 0.654784 11.2346C4.18367 7.69001 7.71923 4.15211 11.2748 0.634228C12.4244 -0.500572 13.4002 0.0534772 14.3693 1.02807C19.5958 6.2882 24.8557 11.5216 30.1022 16.7617C30.5433 17.2023 31.0112 17.6295 31.5793 18.1702C32.916 16.735 33.992 17.3825 35.0681 18.5374C36.2778 19.8457 37.6546 21.0072 38.7841 22.3757C39.1918 22.8696 39.4524 24.1379 39.1584 24.4317C37.8016 25.8001 38.8309 26.8081 39.292 27.8294C42.5001 26.4743 45.5678 24.9056 48.8026 23.8442C69.7286 16.9486 92.8669 30.4594 97.1577 52.0206C99.3566 63.0616 97.2513 73.2014 90.6279 82.3599C89.4917 83.9286 89.6254 87.106 90.9755 88.5545C91.5235 89.142 92.1785 89.6226 92.9805 90.3168C92.0114 91.1045 91.2361 91.7387 90.1734 92.5998C88.9771 90.9309 87.7139 89.1687 86.5042 87.4731C69.742 101.137 52.3917 101.531 34.6604 88.4945C34.1725 89.202 33.6311 89.9964 33.0764 90.7841C32.5751 91.485 32.0538 92.1725 31.5258 92.8868C30.4631 91.8388 29.7881 91.1779 29.3403 90.7374C30.1423 89.1353 30.9577 87.6934 31.5726 86.1715C31.7464 85.7442 31.4924 84.9432 31.1582 84.5427C24.3143 76.3855 21.4271 66.9533 22.2558 56.4197C22.6769 51.1128 24.3077 46.093 26.9677 41.447C27.3353 40.8062 27.6962 40.1653 28.1573 39.3643L28.1707 39.3576ZM42.0857 81.8659C53.9556 91.9456 71.3527 89.1687 78.6912 80.7578C78.3169 80.7311 77.936 80.7778 77.6753 80.9781C75.7037 82.5134 75.6368 82.5134 73.8724 80.7511C73.2241 80.1036 72.5424 78.9555 71.874 78.9555C69.595 78.9555 68.8197 77.0997 67.5565 75.9115C65.7185 74.1826 64.9834 71.8596 64.7829 69.4031C64.5556 66.5995 67.0486 64.3966 69.8757 64.6837C73.6652 65.0642 76.3921 67.2203 78.5575 70.0506C79.3128 71.0386 79.4331 72.4671 80.5091 73.4483C82.8015 75.5511 82.7414 75.6245 80.7564 77.9675C80.6962 78.0343 80.723 78.1744 80.6561 78.7418C81.2643 78.4081 81.7389 78.2879 81.9862 77.9875C87.4666 71.2255 89.719 63.4554 88.0681 54.9578C84.8935 38.6167 69.9893 28.8707 53.8086 32.2551C50.0124 33.0495 46.5369 34.6315 43.7633 36.7409C43.8569 38.4364 43.9304 39.7982 44.0039 41.1533C43.7566 41.2734 43.5093 41.3869 43.2553 41.5071C46.0023 44.1638 48.7425 46.8273 51.2354 49.237C50.6606 50.0181 50.0792 50.7924 49.3173 51.8204C46.4835 48.8833 43.8168 46.1197 41.1434 43.3628C41.1033 43.5564 41.0565 43.7566 41.0164 43.9502C39.7131 43.8634 38.4165 43.77 36.9528 43.6699C29.0797 53.4091 29.748 69.9905 39.7265 79.643C40.2077 79.1824 40.6889 78.7285 41.3973 78.0543C40.8292 77.6137 40.1743 77.3667 40.0673 76.9662C39.8668 76.2386 39.6797 75.1839 40.0473 74.6899C41.1434 73.2548 42.1592 71.8329 43.1083 70.2642C45.0799 67.02 48.2345 64.8639 52.3182 64.677C54.3098 64.5835 56.2948 66.0254 56.756 67.8411C57.5981 71.1587 54.4702 77.7673 51.182 78.6617C49.4376 79.1357 48.4618 80.1704 47.3657 81.2451C46.2696 82.3265 45.3205 82.3599 44.2846 81.2518C44.0306 80.9781 43.7232 80.7511 43.3957 80.4708C42.9345 80.9647 42.5469 81.3719 42.0857 81.8659ZM87.1391 81.4987C97.2446 69.837 98.3006 49.1836 84.82 35.5527C71.2257 21.8016 51.0483 23.3169 40.8092 31.3539C41.1968 32.195 41.5978 33.0495 42.0055 33.9306C57.0233 24.1379 73.9927 28.4235 83.3429 38.5365C92.78 48.7431 95.5871 66.4393 84.3053 80.3706C85.2143 80.7378 86.1099 81.0982 87.1258 81.5054L87.1391 81.4987ZM28.9727 20.6C23.4722 15.0729 17.9851 9.56577 12.5982 4.15878C9.79111 6.95573 6.91053 9.81276 4.23713 12.4762C9.67081 17.9499 15.158 23.4771 20.6317 28.9909C23.3987 26.2073 26.2258 23.3636 28.9727 20.6ZM35.9904 84.823C50.3332 99.2617 74.0328 96.7251 84.7531 84.0153C82.3604 83.0007 81.672 83.0808 79.8274 84.5494C68.1046 93.9148 51.8837 93.8814 40.201 84.4693C38.617 83.1943 37.6078 83.261 35.9904 84.823ZM36.0505 80.6977C26.6068 68.2616 25.8649 55.3716 33.9586 41.8809C33.043 41.4804 32.1273 41.0798 31.2585 40.6993C21.5674 54.4972 24.722 73.4216 33.8049 82.2731C34.5534 81.7457 35.2953 81.2251 36.0505 80.6977ZM36.0104 28.4035C33.4573 30.9267 30.9176 33.4299 28.3913 35.9265C31.5793 37.335 34.8609 38.8303 38.1826 40.2121C38.6437 40.4056 39.4859 40.1787 39.9002 39.8382C40.2611 39.5445 40.5485 38.6968 40.3748 38.2962C38.9512 34.8985 37.4073 31.5408 36.0038 28.4035H36.0104ZM23.4655 35.3858C27.5024 31.3606 31.4523 27.4289 35.4022 23.4904C34.7406 22.7895 34.0054 22.0018 33.4106 21.3744C29.3537 25.3996 25.4037 29.318 21.4471 33.243C22.1355 33.9706 22.8707 34.7583 23.4655 35.3858ZM71.072 74.9303C72.4822 73.5818 73.7922 72.3269 75.1289 71.0586C73.7788 69.3697 72.2082 68.2483 70.0962 67.9746C68.3518 67.7476 67.8773 68.2016 68.0778 69.9104C68.3251 72.0265 69.4479 73.6085 71.072 74.9369V74.9303ZM50.5804 75.0237C52.4117 73.4617 53.6214 71.7528 53.6682 69.3697C53.695 68.2149 53.1402 67.8211 52.0775 67.9145C49.7784 68.1215 47.9939 69.1828 46.6372 71.0719C47.9605 72.4003 49.2103 73.6486 50.5804 75.017V75.0237ZM47.2922 76.7927C46.4567 75.8648 45.7416 75.0638 44.9864 74.2293C44.4049 74.7166 43.8569 75.1772 43.4291 75.5377C44.3247 76.5657 45.0265 77.3801 45.8619 78.3413C46.4634 77.6872 46.9246 77.1865 47.2855 76.786L47.2922 76.7927ZM78.3503 75.778C77.7889 75.1439 77.3144 74.6165 76.8599 74.1025C75.8841 75.0237 75.1089 75.7513 74.5073 76.3187C74.9752 77.0196 75.3829 77.6204 75.6836 78.0743C76.6527 77.2399 77.4681 76.5457 78.357 75.7847L78.3503 75.778Z" fill="#028FFF"/>
<path d="M67.931 56.7267C67.9644 60.2446 65.1506 63.1617 61.6819 63.1884C58.2934 63.2151 55.4195 60.3781 55.3861 56.967C55.346 53.3623 58.0194 50.5387 61.5282 50.4653C65.0036 50.3918 67.8976 53.2222 67.931 56.7267ZM64.7296 56.7534C64.7028 55.0045 63.2325 53.5359 61.5616 53.6027C59.8707 53.6694 58.4471 55.2247 58.5206 56.9269C58.5875 58.5958 59.991 59.9509 61.6552 59.9509C63.4129 59.9509 64.7563 58.5557 64.7296 56.7534Z" fill="#028FFF"/>
<path d="M68.0512 42.5282C66.2734 42.5616 64.8097 41.2199 64.7496 39.511C64.6894 37.8489 66.1598 36.3536 67.8841 36.3202C69.6686 36.2802 71.1056 37.6086 71.1657 39.3508C71.2259 41.0664 69.8224 42.5015 68.0512 42.5282Z" fill="#028FFF"/>
<path d="M44.2514 56.7466C42.4201 56.7466 41.1302 55.4316 41.1503 53.5959C41.1703 51.8937 42.5003 50.5186 44.1712 50.4652C45.8554 50.4185 47.406 51.9137 47.4327 53.6026C47.4595 55.3248 46.0158 56.7466 44.2447 56.7466H44.2514Z" fill="#028FFF"/>
<path d="M55.4796 37.9091H58.407V40.9597H55.4796V37.9091Z" fill="#028FFF"/>
<path d="M80.6898 59.884V56.8601H83.6239V59.884H80.6898Z" fill="#028FFF"/>
<path d="M72.7097 53.4691V50.5653H75.6972V53.4691H72.7097Z" fill="#028FFF"/>
<path d="M36.5253 58.4221H39.3724V61.386H36.5253V58.4221Z" fill="#028FFF"/>
<path d="M60.1915 80.3371V77.5001H63.2191V80.3371H60.1915Z" fill="#028FFF"/>
<path d="M22.7038 16.4746C23.2786 17.0487 23.947 17.7229 24.6153 18.3971C22.5167 20.4264 20.4448 22.4423 18.3395 24.4783C17.7982 23.8775 17.1632 23.1633 16.5216 22.4557C18.5133 20.5265 20.5919 18.5172 22.6971 16.4746H22.7038Z" fill="#028FFF"/>
<path d="M13.5675 19.9257C12.9727 19.2382 12.3712 18.5506 11.8231 17.9298C13.8616 15.9339 15.9669 13.8712 18.0254 11.8486C18.5601 12.3092 19.2953 12.9434 20.0037 13.5575C17.8249 15.7136 15.7931 17.7229 13.5608 19.9324L13.5675 19.9257Z" fill="#028FFF"/>
</g>
<defs>
<clipPath id="clip0_2004_235">
<rect width="98" height="98" fill="white"/>
</clipPath>
</defs>
</svg>
