<svg width="101" height="101" viewBox="0 0 101 101" fill="none" xmlns="http://www.w3.org/2000/svg">
<g clip-path="url(#clip0_2004_119)">
<path d="M42.4222 97.9684V68.7846C42.302 68.7248 42.1751 68.6716 42.0549 68.6118C40.6725 70.3801 39.29 72.1418 37.9142 73.9167C34.2811 78.5968 30.4743 79.7202 24.8175 77.7126C24.4101 78.2046 23.9894 78.7297 23.5419 79.2416C22.5001 80.4515 21.1376 81.1761 19.5882 80.8437C18.159 80.5379 17.5312 81.1894 16.7899 82.1533C12.362 87.9236 7.88736 93.6673 3.42608 99.4177C3.28583 99.5972 3.13222 99.77 2.99197 99.9495C2.3909 100.741 1.70969 101.372 0.687866 100.634C-0.380705 99.8564 -0.0534552 99.0122 0.634437 98.1346C3.80676 94.0728 6.96572 89.9911 10.1247 85.916C11.7409 83.8352 13.3705 81.7611 14.96 79.6604C15.2204 79.3214 15.5878 78.7231 15.4609 78.4838C14.0049 75.7582 14.9199 73.5179 16.8968 71.4371C14.6127 68.5453 13.7912 65.361 14.9065 61.9041C15.334 60.5812 16.1087 59.2982 16.9702 58.188C25.6123 46.9798 34.3078 35.8115 42.9766 24.6366C41.0865 21.8246 41.0197 19.9499 42.7295 17.9888C44.339 16.1407 46.5763 15.8216 48.5665 17.2575C50.3697 18.5671 52.0928 19.9831 53.9428 21.419C56.8413 17.683 59.673 14.04 62.5715 10.2973C61.6031 9.53278 60.7416 8.8813 59.9067 8.19658C57.8831 6.54127 57.596 4.01511 59.1654 1.95429C60.8618 -0.266072 63.2594 -0.66494 65.49 1.06349C70.706 5.0987 75.8952 9.1738 81.0444 13.2954C83.1148 14.9507 83.255 17.437 81.5787 19.5311C79.9692 21.5387 77.5515 21.9043 75.4745 20.4152C74.5462 19.7504 73.6579 19.0258 72.6094 18.2281C69.7376 21.9176 66.9126 25.554 63.9807 29.3166C65.637 30.6262 67.2064 31.8561 68.7625 33.0926C71.0332 34.8941 71.5408 37.0281 70.2452 39.2418C68.8894 41.5552 66.7723 42.1269 64.0207 40.937C63.9206 40.8971 63.8003 40.9104 63.5399 40.8838C62.7652 41.8943 61.9437 42.9646 60.9753 44.221C63.6334 44.3008 65.4032 45.2647 66.051 47.731C66.4918 49.3996 65.8573 51.281 64.4615 52.318C63.4998 53.0315 63.0546 53.9888 63.1258 55.1899C64.7687 56.2203 66.3449 57.2042 67.8609 58.1548C69.2901 57.2573 70.8663 56.2668 72.6227 55.1633C72.9299 54.0398 72.7096 53.0426 71.2469 52.2249C69.6441 51.3275 69.1632 49.2334 69.751 47.3455C70.2986 45.5772 71.7879 44.3407 73.7047 44.3141C77.7853 44.2542 81.8659 44.2542 85.9465 44.3141C87.93 44.3407 89.4728 45.637 89.9803 47.4784C90.548 49.5193 89.8935 51.5602 88.0569 52.5108C86.9683 53.0759 86.8147 53.8603 87.0551 54.7245C87.1887 55.2098 87.8432 55.6885 88.3708 55.9211C91.6767 57.3836 93.3129 59.9696 93.3597 63.4797C93.4398 69.2633 93.3797 75.0468 93.3864 80.8238C93.3864 81.9739 93.1193 83.0242 91.7835 82.9777C90.4345 82.9311 90.3076 81.8342 90.3143 80.7108C90.341 76.649 90.3276 72.5805 90.3276 68.5187C90.3276 67.9603 90.3276 67.4085 90.3276 66.757H69.4437V91.2874H90.3143C90.3143 90.7556 90.3477 90.2504 90.3076 89.7584C90.2074 88.6615 90.8085 88.1231 91.7969 88.0832C92.8521 88.0433 93.3797 88.7413 93.3664 89.7252C93.333 92.238 93.2261 94.7443 93.146 97.2571C93.146 97.4233 93.146 97.5962 93.146 97.9618C95.056 97.9618 96.9394 97.9685 98.8228 97.9618C99.9648 97.9618 101.013 98.1945 100.993 99.5573C100.973 100.847 99.9381 100.993 98.8762 100.993C78.1793 100.993 57.4824 100.993 36.7855 100.993C35.7103 100.993 34.7419 100.814 34.7285 99.4974C34.7219 98.1945 35.6769 97.9552 36.7521 97.9552C38.6422 97.9552 40.5322 97.9552 42.4089 97.9552L42.4222 97.9684ZM34.2143 41.0566C33.9405 41.276 33.7802 41.3624 33.68 41.4888C28.6911 47.9039 23.6555 54.2924 18.74 60.7674C16.4226 63.8254 17.0704 67.8273 20.0557 70.2671C21.6051 71.5368 23.1946 72.7666 24.7775 73.9965C28.237 76.6756 32.2374 76.2434 34.9489 72.8531C37.233 69.9879 39.4503 67.0695 41.6809 64.1644C41.9547 63.8121 42.2954 63.3999 42.3287 62.9944C42.6493 59.0456 44.8198 56.6324 48.6533 55.4624C48.6066 54.658 48.847 53.6542 48.453 53.129C47.498 51.846 46.3359 50.6627 45.087 49.6456C41.534 46.7538 37.9009 43.9617 34.2076 41.0566H34.2143ZM45.4743 91.3339H66.1646V66.8169H45.4743V91.3339ZM61.3493 38.8496C59.0786 37.0613 56.888 35.3262 54.6841 33.6045C53.8159 32.9264 52.9811 32.1486 53.876 31.0584C54.7576 29.9748 55.7059 30.6063 56.5675 31.2844C59.3992 33.5247 62.2509 35.7384 65.0826 37.9787C65.9375 38.6568 66.7656 39.0557 67.5871 37.9787C68.3685 36.9483 67.8876 36.1772 67.0261 35.4991C60.4477 30.3337 53.8626 25.1684 47.2909 19.9898C46.416 19.305 45.5545 18.9527 44.7998 20.023C44.1052 21.0002 44.4525 21.8046 45.3808 22.5026C46.8501 23.5995 48.2526 24.7828 49.7019 25.9063C50.5233 26.5379 51.0309 27.2824 50.3096 28.2264C49.5082 29.2701 48.6266 28.8513 47.7918 28.1666C47.0505 27.555 46.2758 26.9833 45.4276 26.3251C42.2219 30.4667 39.1097 34.482 35.9173 38.597C39.3367 41.276 42.6426 43.8687 45.9819 46.4945C47.311 44.7196 48.9672 44.1944 50.9307 44.2808C52.6538 44.354 54.3769 44.3407 56.1 44.2675C56.6008 44.2476 57.262 44.0415 57.5626 43.6825C58.8515 42.1602 60.027 40.5581 61.3493 38.8496ZM66.1579 63.6592C66.2447 60.6743 64.5417 58.5204 61.917 58.4473C57.8497 58.3343 53.7758 58.321 49.7086 58.4473C46.9837 58.5337 45.1404 61.0399 45.6614 63.6525H66.1579V63.6592ZM69.4371 63.5927H90.2542C90.2542 60.415 88.4309 58.4539 85.4322 58.4141C81.8124 58.3675 78.1927 58.3808 74.5729 58.4074C71.4874 58.4273 69.6708 60.2289 69.4371 63.5927ZM56.2736 23.2804C58.1035 24.7164 59.8333 26.0725 61.6432 27.4885C64.5617 23.7258 67.3934 20.0828 70.2786 16.3667C68.4353 14.9241 66.7322 13.5946 64.9157 12.1653C62.0038 15.9147 59.1788 19.551 56.2803 23.2804H56.2736ZM69.4838 94.5049C69.1966 97.3967 69.6842 97.9618 72.3623 97.9618C77.4179 97.9618 82.4736 97.9685 87.536 97.9618C90.0538 97.9618 90.7217 97.0511 90.0738 94.5049H69.4838ZM45.5679 94.5382C45.1271 97.2771 45.6814 97.9618 48.286 97.9684C53.3284 97.9684 58.3707 97.9684 63.413 97.9684C66.0443 97.9684 66.5452 97.3303 66.0911 94.5382H45.5679ZM62.7117 2.93817C62.458 2.74538 62.2042 2.55924 61.9571 2.36646C61.7166 2.95146 61.2758 3.53647 61.2825 4.12147C61.2892 4.75966 61.5296 5.61723 61.9838 5.98286C66.9326 9.96489 71.9415 13.8738 76.9304 17.8026C77.7586 18.4541 78.6201 18.6536 79.3213 17.7096C79.9758 16.8321 79.7287 16.021 78.8672 15.343C73.8649 11.4274 68.8761 7.49191 63.8738 3.57636C63.5332 3.31044 63.1058 3.1509 62.7117 2.93817ZM55.6992 50.1907C57.596 50.1907 59.486 50.1774 61.376 50.1907C62.3511 50.204 63.1125 49.9647 63.1525 48.8346C63.1926 47.7177 62.5181 47.3654 61.4962 47.3721C57.7095 47.3854 53.9227 47.3854 50.136 47.3721C49.201 47.3721 48.5331 47.6646 48.5265 48.695C48.5265 49.7653 49.1275 50.204 50.1827 50.1907C52.0193 50.1641 53.856 50.1841 55.6926 50.1907H55.6992ZM79.9358 50.1841C81.7123 50.1841 83.4888 50.1641 85.2586 50.1974C86.2871 50.2173 87.1687 49.9979 87.2087 48.8146C87.2488 47.6047 86.3806 47.3654 85.3387 47.3654C81.6722 47.3854 78.0057 47.3787 74.3458 47.3654C73.3307 47.3654 72.409 47.5715 72.4558 48.7947C72.5025 49.9713 73.4308 50.1907 74.4326 50.1841C76.2626 50.1774 78.0992 50.1841 79.9291 50.1841H79.9358ZM84.0431 55.2563V53.3418H75.6414V55.2563H84.0431ZM59.9668 53.3218H51.6387C51.6721 54.0531 51.7055 54.6448 51.7322 55.2563H59.9668V53.3218ZM22.3198 75.8579C21.2311 75.0003 20.2227 74.2026 19.2343 73.4248C17.4711 75.3726 17.3643 76.4562 18.6933 77.4467C20.009 78.4239 20.7369 78.1381 22.3198 75.8579Z" fill="#028FFF"/>
<path d="M83.5756 77.7992C83.0079 78.1981 82.3534 78.8164 82.7808 80.2456C83.4955 82.6721 82.3133 85.0719 80.1829 86.1622C78.1259 87.2125 75.5813 86.7937 74.0052 85.1584C72.3623 83.4565 72.0484 80.8439 73.2438 78.8297C74.4727 76.7489 76.8436 75.9512 79.328 76.4564C80.0961 76.6159 81.0177 76.0043 81.8726 75.7451L81.7457 75.1335C81.3783 75.0603 80.8975 75.1135 80.6704 74.9008C80.2363 74.482 79.6887 73.9236 79.6753 73.4117C79.6686 72.9929 80.3432 72.2217 80.7572 72.1885C82.467 72.0555 84.2101 72.009 85.8997 72.235C86.4006 72.3015 87.0084 73.2987 87.142 73.9502C87.3557 74.9939 87.2355 76.1107 87.2288 77.1943C87.2288 78.2779 87.3757 79.6872 85.8664 79.634C85.1317 79.6074 84.4305 78.5239 83.5823 77.8125L83.5756 77.7992ZM77.7986 83.769C79.0342 83.749 80.0627 82.6654 80.0226 81.4289C79.9825 80.1526 78.954 79.2086 77.6383 79.3016C76.2893 79.4014 75.548 80.1592 75.5146 81.5021C75.4812 82.7585 76.5564 83.7889 77.7986 83.769Z" fill="#028FFF"/>
<path d="M54.3368 80.9968C54.1365 80.8505 53.7424 80.5248 53.3083 80.2589C51.1378 78.9227 50.1561 76.5361 50.8373 74.236C51.5252 71.9292 53.5888 70.3936 55.9531 70.4268C58.2438 70.46 60.2674 71.9957 60.9419 74.2027C61.6365 76.4896 60.6481 78.8961 58.4842 80.2456C58.0568 80.5115 57.6628 80.8373 57.5426 80.9237C58.3907 81.8344 59.279 82.466 59.5996 83.3102C59.7198 83.6227 58.4909 84.4404 57.9166 84.9921C57.1953 85.7234 56.5274 86.4081 55.8529 87.0862C55.2251 86.4413 54.5906 85.8032 53.9628 85.1583C53.9762 85.1384 53.9829 85.1118 53.9962 85.0918C53.3417 84.4138 52.6872 83.7357 52.0327 83.0576C52.7073 82.4527 53.3818 81.8477 54.3368 80.9902V80.9968ZM53.6556 75.7317C53.6757 76.9815 54.7643 78.0784 55.9731 77.972C57.3088 77.8524 58.0301 76.9882 58.1703 75.7384C58.3039 74.5351 57.1686 73.4781 55.8996 73.4715C54.5773 73.4715 53.6423 74.4155 53.6623 75.7317H53.6556Z" fill="#028FFF"/>
</g>
<defs>
<clipPath id="clip0_2004_119">
<rect width="101" height="101" fill="white"/>
</clipPath>
</defs>
</svg>
