<svg width="101" height="101" viewBox="0 0 101 101" fill="none" xmlns="http://www.w3.org/2000/svg">
<g clip-path="url(#clip0_2004_189)">
<path d="M53.4878 88.3844C55.4886 94.1469 62.3914 98.5172 68.7272 98.0219C77.8642 97.3125 84.0933 90.5662 84.1 81.3637C84.1 76.8729 84.0866 72.3754 84.1133 67.8846C84.1133 67.0279 83.9933 66.459 83.0996 65.9705C81.2922 64.9866 80.5185 63.2934 80.5319 61.2253C80.5519 58.2404 80.5319 55.2621 80.5319 52.1433C79.8116 52.0897 79.1647 52.2102 78.7312 51.9693C78.1376 51.6346 77.6974 51.0189 77.1906 50.517C77.7108 50.0351 78.1976 49.1985 78.7578 49.1449C80.5786 48.9642 82.426 49.0713 84.26 49.0713C86.9011 49.0713 89.5421 49.078 92.1832 49.0713C93.2102 49.0713 94.2907 49.1182 94.3574 50.4433C94.4307 51.8756 93.3436 52.0429 92.2232 52.0362C91.8897 52.0362 91.5563 52.0964 91.0094 52.1433C91.0094 55.1149 90.9827 58.0329 91.016 60.9509C91.0427 63.367 90.0623 65.1071 87.9548 66.3185C87.4813 66.5929 87.1212 67.4696 87.1078 68.0787C86.9878 73.3726 87.1145 78.68 86.8677 83.9672C86.5009 91.8178 79.5648 99.3806 71.8151 100.672C62.1646 102.279 54.5549 98.0688 50.2132 88.719C43.7173 88.3643 37.7883 83.2511 38.2351 74.8383C38.3685 72.3687 38.3352 69.879 38.2351 67.4094C38.0484 62.4769 37.7883 57.5443 37.5015 52.6118C37.4682 52.0161 37.1547 51.4004 36.8479 50.865C35.4874 48.469 34.0868 46.0931 32.7063 43.7171C31.2457 43.8443 29.7118 44.2994 28.3245 44.025C26.5238 43.677 24.8432 42.74 23.0958 42.0841C22.5423 41.8766 21.922 41.5554 21.3818 41.6424C17.0601 42.2916 13.8121 40.6853 11.3445 37.1449C11.011 36.663 10.2641 36.2614 9.67049 36.2012C7.4963 35.9937 6.11575 34.6953 6.18911 32.5135C6.24247 30.8537 6.53592 29.2006 6.65596 27.5408C6.71599 26.7109 6.53592 25.8609 6.63596 25.0444C6.70932 24.4354 7.02278 23.3913 7.30956 23.3645C7.96982 23.3043 9.03691 23.5452 9.28367 24.0137C9.73052 24.857 9.88391 25.968 9.81722 26.9452C9.70384 28.5983 9.25033 30.2313 9.09693 31.8911C9.06358 32.2793 9.65048 33.0757 9.97728 33.0891C14.7125 33.2631 20.2814 27.5943 20.3347 22.2201C18.534 22.3472 16.7333 22.3606 14.9726 22.6283C13.1852 22.9027 11.8447 22.3807 10.7309 21.002C8.5167 18.2446 6.57593 15.3533 5.98903 11.7593C5.68891 9.92554 5.72893 8.11181 7.26954 6.84019C8.79014 5.58865 10.5909 5.70243 12.3249 6.40517C13.1652 6.74649 13.9789 7.21499 14.7125 7.74371C16.1797 8.79447 17.6737 9.33658 19.5477 8.94171C20.0746 8.82793 20.995 9.56413 21.3885 10.1464C21.8553 10.8224 21.7419 11.9334 22.2488 12.5424C23.0158 13.4593 23.9962 14.4231 25.0766 14.8045C26.7706 15.4002 28.6313 15.5207 30.5521 15.8687C30.9322 15.34 31.3858 14.7042 32.1394 13.6601C30.2453 13.1247 28.6113 12.4554 26.9173 12.2345C25.4901 12.0538 24.7498 11.572 24.4363 10.1531C24.0428 8.35944 23.636 6.48548 21.4885 5.88313C21.0617 5.76266 20.5081 5.56857 20.168 5.7292C18.3139 6.59256 16.9867 5.60873 15.4128 4.8123C13.6787 3.92886 11.6646 3.15919 9.76386 3.14581C4.74187 3.11903 1.92076 7.389 3.25462 12.7633C3.73481 14.6908 4.56847 16.5447 5.37546 18.3718C5.79562 19.3355 6.02905 20.1989 5.02865 20.7745C4.04827 21.3366 3.28129 20.8213 2.77443 19.8776C0.593564 15.7616 -0.833668 11.4716 0.540209 6.80004C2.13417 1.4057 7.86978 -1.25132 13.6121 0.575798C14.1589 0.749808 14.7392 0.897049 15.206 1.20491C17.1068 2.47653 19.1209 2.85133 21.4418 2.8781C24.423 2.91156 26.0837 5.12016 26.904 7.83741C27.2108 8.8614 27.6776 9.17596 28.7247 9.43697C30.6388 9.91216 32.4462 10.8157 34.4003 11.5786C44.1708 4.42412 56.9159 4.47766 66.4663 11.4783C68.8272 10.7019 70.9881 10.0393 73.1089 9.26296C73.4824 9.12911 73.8159 8.58699 73.9693 8.15866C75.4899 3.86193 77.5574 2.49661 81.9725 2.81786C82.5727 2.85802 83.273 2.57023 83.8199 2.24898C86.7744 0.515563 89.8489 -0.555274 93.3169 0.308088C98.7658 1.66002 101.674 6.25793 100.88 12.0873C100.226 16.886 97.9521 20.8815 94.9576 24.5157C94.224 25.4058 94.0239 26.1956 94.2507 27.3333C94.5841 29.0132 94.7442 30.7466 94.8109 32.4667C94.8976 34.6552 93.5237 35.9736 91.3695 36.1878C90.7693 36.248 90.009 36.6228 89.6822 37.1047C87.2545 40.6853 83.9866 42.2715 79.6782 41.6223C79.2114 41.5554 78.5711 41.5755 78.2376 41.8432C75.2965 44.2057 72.0485 44.6608 68.4138 43.4963C67.5134 45.0691 66.6731 46.6285 65.746 48.121C65.1258 49.1182 64.6523 50.8248 62.9983 49.7941C61.5177 48.8705 62.5648 47.6525 63.1783 46.6552C66.6997 40.953 69.0807 34.8225 69.7676 28.1432C70.0344 25.5598 69.7409 22.9228 69.4141 20.2792C66.9132 22.4945 64.9724 24.9106 65.0524 28.2636C65.1458 32.1923 63.8653 35.5855 61.5844 38.6842C61.451 38.8716 61.3109 39.059 61.1709 39.2397C59.7703 40.9932 57.7495 42.5526 57.1426 44.5403C56.5557 46.4612 57.5695 48.8304 57.6161 51.0055C57.6562 52.8259 57.6628 54.7668 57.0893 56.4534C56.0422 59.5521 57.4694 62.0552 58.4365 64.7055C58.5365 64.9732 59.2168 65.3079 59.3435 65.2209C59.6636 64.9866 59.9837 64.5449 60.0171 64.1567C60.2705 61.4663 60.4106 58.7691 60.684 56.0853C60.744 55.4696 61.0041 54.7066 61.4443 54.3385C62.3447 53.5956 63.4718 54.2649 63.5118 55.6235C63.5718 57.8053 63.4851 60.0006 63.3918 62.1824C63.2184 66.3118 62.8716 70.4412 62.8182 74.5706C62.7248 82.033 60.3639 85.6337 53.4945 88.3777L53.4878 88.3844ZM48.9994 85.3727C48.9994 83.5723 48.9994 81.9126 48.9994 80.2528C48.9994 66.8338 48.9994 53.4149 49.0061 39.996C49.0061 39.0925 48.9394 38.4567 47.9456 37.9346C46.265 37.0579 45.4046 35.5252 45.4246 33.5509C45.4447 31.2486 45.3913 28.9396 45.4447 26.6373C45.5047 23.7795 47.6989 21.7114 50.56 21.7382C53.3344 21.765 55.4886 23.813 55.5487 26.5904C55.602 28.8927 55.5487 31.195 55.5687 33.504C55.5953 35.5453 54.6016 36.9508 52.981 38.0752C52.5208 38.3964 52.0406 39.0858 52.0339 39.6011C51.9872 53.9972 52.0006 68.3999 52.0339 82.796C52.0339 83.6593 52.2807 84.5227 52.4274 85.4597C56.2689 84.4223 58.87 82.1535 59.4502 78.5662C59.9771 75.2801 59.5636 71.8467 59.5636 68.3531C57.0226 68.4535 55.8821 66.8071 55.1218 64.6252C54.2281 62.0686 53.061 59.4384 53.948 56.7613C55.0418 53.4751 54.9217 50.276 54.008 47.097C53.4478 45.1561 53.7813 43.6167 54.9751 42.131C56.5157 40.2035 58.1163 38.3094 59.5636 36.3083C61.1375 34.1331 62.1913 31.7104 62.0312 28.9329C61.8445 25.7806 62.9516 23.0701 64.8057 20.6205C65.6993 19.4426 66.6931 18.345 68.0269 16.7387C67.0065 16.4978 66.2329 16.0427 65.6527 16.2234C55.5487 19.3221 45.478 19.3154 35.374 16.2301C34.9005 16.0829 34.2469 16.5112 33.68 16.6651C33.8867 17.2273 33.9534 17.9167 34.3269 18.3249C36.8079 21.0622 39.0221 23.9937 38.9221 27.8621C38.822 31.5364 40.0292 34.615 42.2167 37.4126C43.5639 39.1326 44.9711 40.7991 46.3183 42.5258C47.3387 43.8376 47.5255 45.2565 47.052 46.9029C46.1649 49.9815 45.8515 53.1003 46.8986 56.2392C48.0524 59.6994 46.5117 62.7513 45.3713 65.8634C44.6777 67.744 43.0237 68.1858 41.343 68.5137C41.343 71.579 41.2297 74.5171 41.3697 77.4418C41.5631 81.4507 45.2046 85.0782 49.0061 85.3593L48.9994 85.3727ZM70.4412 15.862C72.322 15.514 73.9359 15.1793 75.5699 14.9116C77.2572 14.6305 78.391 13.7136 78.9579 12.1141C79.1847 11.4649 79.1847 10.6617 79.5782 10.1598C80.025 9.59091 80.8987 8.82124 81.4122 8.93502C83.3597 9.37004 84.8803 8.74093 86.3942 7.65671C87.1345 7.12798 87.9548 6.67957 88.8018 6.35162C90.5559 5.67566 92.3499 5.61542 93.8305 6.93389C95.2644 8.20551 95.2977 9.95901 95.011 11.7326C94.3974 15.514 92.4166 18.6194 89.8823 21.3099C89.1086 22.1264 87.6014 22.4677 86.3875 22.5949C84.987 22.7354 83.5397 22.4142 82.1125 22.2536C80.7653 22.1063 80.3318 22.6283 80.7186 23.9468C82.1392 28.779 85.2137 31.8509 90.1557 32.9552C91.8897 33.3434 92.3432 33.0422 91.8564 31.4092C90.5292 27.0054 91.4629 23.4248 94.5508 19.9312C97.1318 17.0065 98.2189 13.2117 97.9321 9.16926C97.7054 6.03707 95.3911 3.6076 92.2832 3.15919C89.5621 2.76432 87.1545 3.5206 85.007 5.10678C83.7932 6.0036 82.6527 6.31147 81.1855 5.8229C79.7049 5.32764 78.4444 5.95675 77.6507 7.23506C77.1505 8.04488 76.7771 9.00194 76.6037 9.93893C76.3169 11.5117 75.5566 12.1877 73.9293 12.2011C72.1552 12.2211 70.5079 12.8034 69.1207 14.0683C69.6276 14.7577 70.0677 15.3467 70.4479 15.862H70.4412ZM31.6592 19.9111C31.4191 21.6445 31.0856 22.9429 31.079 24.248C31.0056 32.4265 33.5933 39.8487 37.915 46.6619C39.7091 49.4863 40.8028 52.3374 40.3893 55.7172C40.2493 56.8483 40.3026 58.0195 40.396 59.164C40.536 60.8773 40.7628 62.5906 41.0229 64.2906C41.0763 64.6319 41.343 65.0402 41.6298 65.2209C41.7899 65.3213 42.3768 65.0937 42.4701 64.8862C43.4772 62.5906 44.9044 60.2147 44.1708 57.6916C43.0304 53.7763 43.2238 49.9949 44.1041 46.1198C44.2442 45.5041 44.1041 44.6407 43.7507 44.1388C42.5102 42.4187 41.0896 40.8259 39.7891 39.146C37.5215 36.2213 35.8742 32.982 36.0076 29.2073C36.141 25.4661 34.3803 22.7689 31.6592 19.9111ZM69.8943 40.7656C72.0819 41.5755 74.2694 41.2007 76.1501 39.6145C77.3706 38.5838 78.5511 38.3295 80.105 38.6507C83.0929 39.2665 85.6472 37.9748 86.9544 35.5386C85.2538 34.2603 83.4064 33.1627 81.9391 31.6769C80.4185 30.1443 79.2714 28.2435 77.8775 26.403C76.5503 27.6947 74.9563 28.6183 73.1223 27.8955C72.0218 32.2726 70.9681 36.4823 69.8877 40.7656H69.8943ZM22.7757 26.1219C21.0883 30.6195 17.7337 33.2832 13.9322 35.465C15.6662 38.1421 18.1005 39.2598 21.0817 38.6173C22.5089 38.3094 23.6093 38.5637 24.7164 39.5074C26.6439 41.1538 28.8581 41.5755 31.1056 40.7656C30.0319 36.4555 28.9648 32.2056 27.8777 27.8554C25.9303 28.712 24.4097 27.5475 22.7757 26.1153V26.1219ZM28.9648 18.6328C28.0578 18.4454 27.1107 18.3383 26.217 18.0505C24.6097 17.5352 22.8024 17.234 21.5085 16.2636C20.1213 15.2262 19.4544 13.2117 18.0605 12.2011C16.6066 11.1436 14.6525 10.8023 12.9385 10.0996C12.3115 9.84523 11.7647 9.37674 11.1244 9.14249C9.49042 8.55353 8.87684 9.01533 8.96354 10.7287C9.13695 14.2223 11.1844 16.799 13.2919 19.3087C13.552 19.6233 14.319 19.5965 14.8525 19.5765C16.5132 19.5229 18.1672 19.3154 19.8212 19.3221C21.8486 19.3288 22.9891 20.3461 23.4293 22.3205C23.7961 23.9602 26.2304 25.2251 27.8243 24.6429C28.1912 22.7153 28.5513 20.8146 28.9648 18.6261V18.6328ZM73.2023 24.7767C75.0697 25.1448 77.1839 23.8263 77.6041 22.0996C78.0176 20.393 79.218 19.3489 81.0654 19.3355C82.7794 19.3221 84.4935 19.5497 86.2075 19.5832C86.7677 19.5965 87.628 19.5028 87.8548 19.1481C89.2353 16.9998 90.6292 14.8246 91.683 12.5089C92.1098 11.572 91.6896 10.2468 91.6563 9.10234C90.5358 9.38343 89.3687 9.54406 88.315 9.97239C86.3008 10.7956 84.3534 11.7794 81.8591 12.9306C80.2051 16.6919 79.0846 17.4816 74.0493 18.1241C73.349 18.2111 72.6821 18.5525 72.0619 18.7599C72.462 20.8615 72.8222 22.7756 73.2023 24.7834V24.7767ZM63.9587 13.6668C57.6228 7.99804 43.4505 7.99134 36.988 13.7069C46.0982 16.0695 54.9084 16.1498 63.9587 13.6668ZM83.4597 52.1098C83.4597 54.9475 83.4464 57.5778 83.4664 60.208C83.4664 60.884 83.3663 61.754 83.7265 62.1958C84.2667 62.8583 85.2071 63.6414 85.914 63.5879C86.6143 63.5343 87.7748 62.5371 87.8081 61.9013C88.0015 58.6687 87.8948 55.4227 87.8948 52.1031H83.4464L83.4597 52.1098ZM48.2791 30.0439C48.2791 31.1348 48.2124 32.2324 48.2991 33.3233C48.4058 34.6686 49.0728 35.6658 50.54 35.6524C51.9206 35.639 52.6342 34.682 52.6942 33.417C52.7942 31.2954 52.7942 29.1604 52.7009 27.0322C52.6475 25.6936 51.9139 24.6629 50.4666 24.6897C49.0261 24.7165 48.3858 25.7605 48.2925 27.1125C48.2258 28.0829 48.2791 29.0667 48.2858 30.0439H48.2791Z" fill="#028FFF"/>
</g>
<defs>
<clipPath id="clip0_2004_189">
<rect width="101" height="101" fill="white"/>
</clipPath>
</defs>
</svg>
