<svg width="447" height="213" viewBox="0 0 447 213" fill="none" xmlns="http://www.w3.org/2000/svg">
<g filter="url(#filter0_d_76_130)">
<path d="M4 204.071V52.5956H90.9592C81.0914 49.6145 68.2543 46.059 60.2825 45.047C56.742 44.6094 52.5391 44.4727 48.1078 44.3086C33.9229 43.8163 17.8421 43.2966 9.7561 33.0404C8.88809 31.9464 8.93378 30.2233 9.84747 29.184C10.7611 28.1447 12.2231 28.1994 13.0683 29.2934C19.8523 37.9087 34.9279 38.401 48.222 38.8659C52.7447 39.03 57.0161 39.1668 60.7394 39.6317C65.856 40.2608 72.7998 41.9018 79.6981 43.7616C71.6577 38.2916 64.1199 31.4814 61.3332 23.8508C57.4957 13.3757 60.6936 7.33136 62.9321 4.67841C66.8381 0.0289091 73.7592 -1.36594 79.0586 1.45111C91.8957 8.28861 100.53 22.1551 105.875 44.7188C111.22 22.1551 119.831 8.28861 132.691 1.45111C137.991 -1.36594 144.912 0.0289091 148.818 4.67841C151.056 7.35871 154.254 13.4031 150.417 23.8508C146.694 33.9976 134.519 42.7496 123.989 48.7393C130.636 47.4812 138.996 45.3205 147.242 41.5736C166.566 32.7942 178.581 34.1344 182.533 34.572C183.789 34.7087 184.703 36.0489 184.588 37.5531C184.474 39.0574 183.355 40.1787 182.099 40.0146C178.421 39.6044 167.206 38.3463 148.864 46.688C142.97 49.3683 137.077 51.2555 131.755 52.623H208.435L208.435 198.523H443V205L203.867 204.071L203.867 103.439H8.56839L8.56842 131.252V204.071L4 204.071ZM77.2312 6.42881C75.9521 5.74506 74.5358 5.44421 73.1196 5.44421C70.4928 5.44421 67.866 6.53821 66.1985 8.53476C63.7316 11.4886 63.5031 16.0287 65.5589 21.6354C70.3329 34.6814 93.152 46.0043 102.403 50.1341C95.9844 19.6662 85.066 10.586 77.2541 6.42881H77.2312ZM146.237 21.6354C148.292 16.0013 148.087 11.4886 145.597 8.53476C143.907 6.53821 141.28 5.44421 138.676 5.44421C137.26 5.44421 135.821 5.77241 134.564 6.45616C126.753 10.6134 115.834 19.6662 109.393 50.1888C120.836 45.1017 141.828 33.6968 146.237 21.6628V21.6354ZM203.867 97.942V58.0656H8.56839V97.942H203.867Z" fill="#002D6F"/>
</g>
<defs>
<filter id="filter0_d_76_130" x="0" y="0" width="447" height="213" filterUnits="userSpaceOnUse" color-interpolation-filters="sRGB">
<feFlood flood-opacity="0" result="BackgroundImageFix"/>
<feColorMatrix in="SourceAlpha" type="matrix" values="0 0 0 0 0 0 0 0 0 0 0 0 0 0 0 0 0 0 127 0" result="hardAlpha"/>
<feOffset dy="4"/>
<feGaussianBlur stdDeviation="2"/>
<feComposite in2="hardAlpha" operator="out"/>
<feColorMatrix type="matrix" values="0 0 0 0 0 0 0 0 0 0 0 0 0 0 0 0 0 0 0.25 0"/>
<feBlend mode="normal" in2="BackgroundImageFix" result="effect1_dropShadow_76_130"/>
<feBlend mode="normal" in="SourceGraphic" in2="effect1_dropShadow_76_130" result="shape"/>
</filter>
</defs>
</svg>
